<?xml version="1.0" encoding="utf-8"?>
<!-- Generator: Adobe Illustrator 28.0.0, SVG Export Plug-In . SVG Version: 6.00 Build 0)  -->
<svg version="1.1" id="Layer_1" xmlns="http://www.w3.org/2000/svg" xmlns:xlink="http://www.w3.org/1999/xlink" x="0px" y="0px"
	 viewBox="0 0 126.9 67.3" style="enable-background:new 0 0 126.9 67.3;" xml:space="preserve">
<style type="text/css">
	.st0{fill:url(#SVGID_1_);}
	.st1{fill:none;stroke:#000000;stroke-width:0.747;}
	.st2{fill:url(#SVGID_00000085933576782606358220000003091029232051854490_);}
	.st3{fill:url(#SVGID_00000129177171732533573910000002236481993986877062_);filter:url(#Adobe_OpacityMaskFilter);}
	.st4{fill:url(#SVGID_00000106853098347663495130000004233944259376103811_);}
	.st5{fill:url(#SVGID_00000005967920196123450290000004328681171607268026_);}
	.st6{mask:url(#mask0_27_2576_00000016757350595881897540000000110141558342853807_);}
	.st7{opacity:0.82;fill-rule:evenodd;clip-rule:evenodd;fill:#F09731;enable-background:new    ;}
	.st8{fill:none;stroke:#FF8800;stroke-width:0.747;stroke-opacity:0.63;}
	.st9{clip-path:url(#SVGID_00000014604315245046954850000000774070203196334480_);}
	.st10{fill-rule:evenodd;clip-rule:evenodd;fill:#FFAA00;stroke:#000000;stroke-width:0.4482;}
	.st11{fill-rule:evenodd;clip-rule:evenodd;}
</style>
<g>
	
		<linearGradient id="SVGID_1_" gradientUnits="userSpaceOnUse" x1="101.3719" y1="8.2282" x2="106.9398" y2="66.6113" gradientTransform="matrix(0.9967 8.106078e-02 -8.106078e-02 0.9967 3.0998 -4.338)">
		<stop  offset="0" style="stop-color:#FBD359"/>
		<stop  offset="1" style="stop-color:#F09731"/>
	</linearGradient>
	<path class="st0" d="M104.7,12C90.4,7.8,86.1,44.2,101,46C111.8,47.3,127.8,18.8,104.7,12z M103.5,53.6l0.1,0
		C76.5,57.3,80.3,9.7,97.5,3.9C126.1-5.8,135.3,49.3,103.5,53.6z"/>
	<path class="st1" d="M103.7,54L103.7,54c8-1.1,13.4-5.5,16.6-11.1c3.2-5.7,4.1-12.8,3.2-19.4c-1-6.6-3.8-12.8-8.3-16.8
		c-4.5-4-10.6-5.6-17.8-3.2l0,0c-4.4,1.5-8,5.7-10.3,11c-2.4,5.3-3.6,11.7-3.5,17.8c0.2,6.1,1.7,12,5,16.1
		C91.8,52.6,96.8,54.9,103.7,54z M109.1,41.9c-2.6,2.6-5.5,4-8.1,3.7c-3.5-0.4-6-2.9-7.4-6.4c-1.4-3.5-1.9-8-1.4-12.4
		c0.5-4.4,1.9-8.5,4-11.3c1.1-1.4,2.3-2.4,3.7-3c1.4-0.6,2.9-0.7,4.6-0.2c5.7,1.7,8.9,4.7,10.5,8.1c1.5,3.5,1.4,7.6,0.2,11.4
		C114,35.8,111.7,39.4,109.1,41.9z"/>
</g>
<g>
	
		<linearGradient id="SVGID_00000109730611751643715270000016157136603346609816_" gradientUnits="userSpaceOnUse" x1="32.2602" y1="9.5857" x2="21.711" y2="81.5116" gradientTransform="matrix(0.9967 8.106078e-02 -8.106078e-02 0.9967 3.0998 -4.338)">
		<stop  offset="0" style="stop-color:#F6D05E"/>
		<stop  offset="1" style="stop-color:#F09731"/>
	</linearGradient>
	<path style="fill:url(#SVGID_00000109730611751643715270000016157136603346609816_);" d="M14.5,15.1c0.4,2.8,0.8,5.9,1.2,9.1
		C40.6,21.2,40.8,10.1,14.5,15.1z M33.4,29.2c6.5,11.5,14.5,21,19.5,30.3l-9,3.5c-8.1-11.4-13-18.2-19.8-30.6
		c-2.2,0.6-4.7,1-7.3,1.4c1,9.6,1.7,19.3,1.8,25.6L9,59.5C8.9,44.7,6.2,23.4,3.9,8.8C44.2-4.7,56.7,18.1,33.4,29.2z"/>
	<path class="st1" d="M33.9,29.3c5.7-2.8,9.2-6.2,10.7-9.8c1.5-3.6,0.9-7.3-1.9-10.1c-2.7-2.8-7.4-4.7-14-5.2
		C22.3,3.9,13.9,5,3.8,8.4L3.5,8.5l0,0.3c2.3,14.7,5,35.9,5.1,50.7l0,0.4l0.4,0l9.7-0.1l0.4,0l0-0.4c-0.1-6.3-0.8-15.8-1.8-25.3
		c2.4-0.4,4.7-0.8,6.7-1.3c6.2,11.3,10.8,17.9,17.8,27.7c0.6,0.9,1.2,1.8,1.9,2.7l0.2,0.2l0.3-0.1l9-3.5l0.4-0.2l-0.2-0.4
		c-2.5-4.7-5.8-9.4-9.2-14.4l0,0C40.6,40,37.1,34.9,33.9,29.3z M16.1,23.8c-0.4-3-0.7-5.8-1.1-8.4c6.4-1.2,11.1-1.4,14.3-1
		c1.6,0.2,2.8,0.5,3.6,1c0.8,0.4,1.1,0.9,1.1,1.4c0,0.5-0.3,1.1-1,1.7c-0.7,0.7-1.8,1.4-3.4,2.1C26.6,21.8,22.1,23,16.1,23.8z"/>
</g>
<defs>
	<filter id="Adobe_OpacityMaskFilter" filterUnits="userSpaceOnUse" x="-14.2" y="14.6" width="135.4" height="57.1">
		<feColorMatrix  type="matrix" values="1 0 0 0 0  0 1 0 0 0  0 0 1 0 0  0 0 0 1 0"/>
	</filter>
</defs>
<mask maskUnits="userSpaceOnUse" x="-14.2" y="14.6" width="135.4" height="57.1" id="mask0_27_2576_00000016757350595881897540000000110141558342853807_">
	
		<linearGradient id="SVGID_00000030461460852869427880000017418198320042009275_" gradientUnits="userSpaceOnUse" x1="-461.6568" y1="-72.2173" x2="-460.3128" y2="-123.4395" gradientTransform="matrix(0.9967 8.106078e-02 8.106078e-02 -0.9967 571.1938 -31.7808)">
		<stop  offset="0" style="stop-color:#F0C031"/>
		<stop  offset="1" style="stop-color:#8A6F1C"/>
	</linearGradient>
	<path style="fill:url(#SVGID_00000030461460852869427880000017418198320042009275_);filter:url(#Adobe_OpacityMaskFilter);" d="
		M104.7,12C90.4,7.8,86.1,44.2,101,46C111.8,47.3,127.8,18.8,104.7,12z M103.5,53.6l0.1,0C76.5,57.3,80.3,9.7,97.5,3.9
		C126.1-5.8,135.3,49.3,103.5,53.6z"/>
	
		<linearGradient id="SVGID_00000066492111018580199160000002567314766160903309_" gradientUnits="userSpaceOnUse" x1="-501.2565" y1="-87.9742" x2="-498.7146" y2="-116.9855" gradientTransform="matrix(0.9967 8.106078e-02 8.106078e-02 -0.9967 571.1938 -31.7808)">
		<stop  offset="0" style="stop-color:#F0C031"/>
		<stop  offset="1" style="stop-color:#8A6F1C"/>
	</linearGradient>
	<path style="fill:url(#SVGID_00000066492111018580199160000002567314766160903309_);" d="M64.2,20.5c-13.1-1.8-14.3,18.9-1,19.4
		C72.9,40.3,85.3,23.5,64.2,20.5z M66,44.2l0.1,0c-24,3.1-23.9-24-8.9-28C82.1,9.7,94.1,40.6,66,44.2z"/>
	
		<linearGradient id="SVGID_00000148624815240693110420000004560900598191102389_" gradientUnits="userSpaceOnUse" x1="-538.4312" y1="-80.2881" x2="-532.9277" y2="-138.59" gradientTransform="matrix(0.9967 8.106078e-02 8.106078e-02 -0.9967 571.1938 -31.7808)">
		<stop  offset="0" style="stop-color:#F0C031"/>
		<stop  offset="1" style="stop-color:#8A6F1C"/>
	</linearGradient>
	<path style="fill:url(#SVGID_00000148624815240693110420000004560900598191102389_);" d="M14.5,15.1c0.4,2.8,0.8,5.9,1.2,9.1
		C40.6,21.2,40.8,10.1,14.5,15.1z M33.4,29.2c6.5,11.5,14.5,21,19.5,30.3l-9,3.5c-8.1-11.4-13-18.2-19.8-30.6
		c-2.2,0.6-4.7,1-7.3,1.4c1,9.6,1.7,19.3,1.8,25.6L9,59.5C8.9,44.7,6.2,23.4,3.9,8.8C44.2-4.7,56.7,18.1,33.4,29.2z"/>
</mask>
<g class="st6">
	<path class="st7" d="M112.6,22.7c3,0,5.4-1.9,5.4-4.2c0-2.3-1.6-3.8-4.6-3.8c-3,0-6.1,1.4-6.2,3.8
		C107.2,20.7,109.6,22.7,112.6,22.7z M1.2,61.9c8.6,0.1,15.6-6.9,15.7-15.4c0.1-8.6-4.7-14-13.3-14.1c-8.6-0.1-17.8,5.3-17.8,13.9
		C-14.3,54.8-7.4,61.8,1.2,61.9z M19.4,66.1c5.7,6.7,15.9,7.5,22.6,1.8c6.7-5.7,7.8-13.1,2-19.8c-5.7-6.7-16.1-10.3-22.8-4.5
		C14.5,49.3,13.7,59.4,19.4,66.1z M70.8,42.5c0,5.8-4.8,10.5-10.6,10.5c-5.8,0-10.5-4.8-10.5-10.6c0-5.8,6.3-9.5,12.1-9.4
		C67.6,33,70.8,36.7,70.8,42.5z M121.2,39.9c0,4.9-4,8.8-8.9,8.8s-8.8-4-8.8-8.9c0-4.9,5.3-7.9,10.2-7.9
		C118.5,31.9,121.2,35,121.2,39.9z M84.4,38.2c1.5,0,2.7-1.2,2.7-2.7c0-1.5-0.8-2.4-2.3-2.4c-1.5,0-3.1,0.9-3.1,2.4
		C81.7,37,82.9,38.2,84.4,38.2z M88.4,40.3c0,0.7-0.6,1.3-1.3,1.3c-0.7,0-1.3-0.6-1.3-1.3c0-0.7,0.8-1.1,1.5-1.1
		C88,39.1,88.4,39.6,88.4,40.3z M91.7,51.6c2.6,0,4.8-2.1,4.8-4.8c0-2.6-1.4-4.3-4.1-4.3c-2.6,0-5.5,1.6-5.5,4.3
		C87,49.4,89.1,51.6,91.7,51.6z"/>
</g>
<path class="st8" d="M104.8,11.7L104.8,11.7c-1.9-0.5-3.6-0.4-5.1,0.2c-1.5,0.6-2.9,1.8-4,3.2c-2.2,2.9-3.7,7.2-4.2,11.6
	c-0.5,4.4-0.1,9.1,1.4,12.8c1.5,3.7,4.1,6.4,8,6.9l0,0c2.9,0.3,6-1.3,8.7-3.9c2.7-2.6,5-6.4,6.3-10.3c1.3-4,1.4-8.2-0.2-11.9
	C114.1,16.5,110.7,13.4,104.8,11.7z M103.5,53.2L103.5,53.2c-6.6,0.9-11.3-1.4-14.3-5.3c-3.1-4-4.7-9.7-4.8-15.7
	c-0.1-6,1.1-12.4,3.4-17.5c2.3-5.2,5.7-9.1,9.9-10.5c7-2.4,12.8-0.8,17.1,3c4.3,3.8,7.1,9.8,8.1,16.3c0.9,6.5,0,13.4-3.1,18.9
	C116.6,48,111.3,52.2,103.5,53.2z"/>
<path class="st8" d="M64.2,20.2L64.2,20.2c-3.4-0.5-6,0.5-7.9,2.3c-1.8,1.8-2.8,4.3-3,6.9c-0.1,2.6,0.6,5.3,2.2,7.3
	c1.6,2.1,4.2,3.5,7.6,3.6l0,0c2.5,0.1,5.2-0.9,7.4-2.5c2.2-1.6,4.1-3.8,5-6.2c0.9-2.4,0.7-4.9-1-7C72.9,22.5,69.6,20.9,64.2,20.2z
	 M66,43.8L66,43.8c-5.9,0.7-10.2-0.4-13.2-2.5c-3-2.1-4.8-5.2-5.3-8.6c-1.1-6.7,2.6-14.3,9.9-16.2c12.3-3.2,21.3,2.8,23.8,10
	c1.3,3.6,0.9,7.4-1.4,10.6C77.3,40.3,72.9,42.9,66,43.8z"/>
<path class="st8" d="M14.5,14.7l-0.3,0.1l0,0.4c0.4,2.8,0.8,5.9,1.2,9.1l0,0.4l0.4,0c6.2-0.7,11-2,14.1-3.4c1.6-0.7,2.8-1.4,3.6-2.2
	c0.8-0.7,1.3-1.5,1.2-2.3c0-0.8-0.6-1.5-1.5-2c-0.9-0.5-2.2-0.9-3.9-1.1C26,13.2,21.1,13.5,14.5,14.7z M33.3,28.8L32.9,29l0.2,0.3
	c3.2,5.7,6.9,11,10.3,16l0,0.1c3.4,4.9,6.5,9.4,9,13.9L44,62.5c-0.6-0.8-1.2-1.7-1.7-2.4c-7-9.9-11.6-16.5-17.9-27.9l-0.1-0.3L24,32
	c-2.2,0.6-4.6,1-7.3,1.4l-0.4,0.1l0,0.4c1,9.4,1.7,18.9,1.8,25.2l-8.9,0.1C9.2,44.4,6.6,23.6,4.3,9c9.9-3.3,18.1-4.3,24.5-3.9
	c6.4,0.4,10.9,2.3,13.5,4.9c2.5,2.6,3.1,5.9,1.7,9.3C42.5,22.6,39,26.1,33.3,28.8z"/>
<path class="st1" d="M103.7,54L103.7,54c8-1.1,13.4-5.5,16.6-11.1c3.2-5.7,4.1-12.8,3.2-19.4c-1-6.6-3.8-12.8-8.3-16.8
	c-4.5-4-10.6-5.6-17.8-3.2l0,0c-4.4,1.5-8,5.7-10.3,11c-2.4,5.3-3.6,11.7-3.5,17.8c0.2,6.1,1.7,12,5,16.1
	C91.8,52.6,96.8,54.9,103.7,54z M109.1,41.9c-2.6,2.6-5.5,4-8.1,3.7c-3.5-0.4-6-2.9-7.4-6.4c-1.4-3.5-1.9-8-1.4-12.4
	c0.5-4.4,1.9-8.5,4-11.3c1.1-1.4,2.3-2.4,3.7-3c1.4-0.6,2.9-0.7,4.6-0.2c5.7,1.7,8.9,4.7,10.5,8.1c1.5,3.5,1.4,7.6,0.2,11.4
	C114,35.8,111.7,39.4,109.1,41.9z"/>
<path class="st1" d="M33.9,29.3c5.7-2.8,9.2-6.2,10.7-9.8c1.5-3.6,0.9-7.3-1.9-10.1c-2.7-2.8-7.4-4.7-14-5.2
	C22.3,3.9,13.9,5,3.8,8.4L3.5,8.5l0,0.3c2.3,14.7,5,35.9,5.1,50.7l0,0.4l0.4,0l9.7-0.1l0.4,0l0-0.4c-0.1-6.3-0.8-15.8-1.8-25.3
	c2.4-0.4,4.7-0.8,6.7-1.3c6.2,11.3,10.8,17.9,17.8,27.7c0.6,0.9,1.2,1.8,1.9,2.7l0.2,0.2l0.3-0.1l9-3.5l0.4-0.2l-0.2-0.4
	c-2.5-4.7-5.8-9.4-9.2-14.4l0,0C40.6,40,37.1,34.9,33.9,29.3z M16.1,23.8c-0.4-3-0.7-5.8-1.1-8.4c6.4-1.2,11.1-1.4,14.3-1
	c1.6,0.2,2.8,0.5,3.6,1c0.8,0.4,1.1,0.9,1.1,1.4c0,0.5-0.3,1.1-1,1.7c-0.7,0.7-1.8,1.4-3.4,2.1C26.6,21.8,22.1,23,16.1,23.8z"/>
<g>
	<defs>
		
			<rect id="SVGID_00000067914468832950742530000016738591530401075846_" x="39.1" y="5.1" transform="matrix(0.2971 -0.9548 0.9548 0.2971 16.7587 82.6632)" width="50.8" height="49.7"/>
	</defs>
	<clipPath id="SVGID_00000183240180940017664100000013843016097091505029_">
		<use xlink:href="#SVGID_00000067914468832950742530000016738591530401075846_"  style="overflow:visible;"/>
	</clipPath>
	<g style="clip-path:url(#SVGID_00000183240180940017664100000013843016097091505029_);">
		<path class="st10" d="M61.5,12.4c-1.4,0.8-3.8,2.1-6.6,3.7c-2.8,1.6-6.2,3.5-8.4,4.7c-2.2,1.2-3.3,1.8-3.9,2.2
			c-0.6,0.4-0.7,0.7-0.7,1c0,0.3,0,0.5,0.3,1.1c0.3,0.6,0.8,1.6,2.3,4.2c1.4,2.6,3.8,6.7,6,10.6c2.2,3.9,4.4,7.6,5.6,9.8
			c1.2,2.1,1.5,2.7,1.8,3c0.3,0.3,0.6,0.5,1,0.5c0.4,0,0.7,0,2-0.8c1.3-0.7,3.5-2,7.8-4.5c4.3-2.5,10.6-6.2,14-8.2
			c3.4-2,3.8-2.3,4.1-2.7c0.2-0.3,0.3-0.7,0.3-0.9c0-0.2-0.1-0.4-0.6-1.3c-0.5-0.9-1.4-2.5-3.7-6.5c-2.2-4-5.8-10.3-8-14.1
			c-2.1-3.7-2.8-4.9-3.2-5.5C71.2,8,71,7.9,70.9,7.8c-0.2-0.1-0.3-0.1-0.5-0.1c-0.2,0-0.4,0-0.6,0.1c-0.2,0.1-0.5,0.2-1.5,0.8
			c-1,0.6-2.8,1.6-3.9,2.2C63.4,11.3,62.9,11.6,61.5,12.4L61.5,12.4z"/>
		<path class="st11" d="M57.4,15.4c-3.2,1.8-6.5,3.6-8.9,5c-2.4,1.3-4,2.2-4.9,2.7c-0.8,0.5-0.9,0.7-1,0.8c-0.1,0.1-0.1,0.3-0.1,0.4
			s0,0.2,0.6,1.3c0.6,1.1,1.8,3.1,4.2,7.3c2.4,4.2,6,10.6,8,14.2c2,3.6,2.4,4.3,2.6,4.7c0.3,0.4,0.4,0.6,0.5,0.6
			c0.1,0.1,0.3,0.1,1-0.3c0.7-0.4,2.1-1.2,4.9-2.8c2.8-1.6,7.1-4.1,10.9-6.2c3.8-2.2,7.1-4.1,8.8-5.1c1.8-1,2-1.2,2.1-1.4
			c0.1-0.2,0.2-0.4,0.2-0.5c0-0.1,0-0.2-0.7-1.4c-0.7-1.2-1.9-3.4-4.3-7.5C79.1,23,75.7,17,73.8,13.7c-1.9-3.4-2.3-4.1-2.6-4.5
			c-0.2-0.4-0.3-0.5-0.4-0.6c-0.1-0.1-0.2-0.1-0.3-0.1c-0.1,0-0.2-0.1-0.3,0c-0.1,0-0.2,0.1-0.7,0.3C68.9,9,68,9.5,65.9,10.7
			C63.9,11.8,60.7,13.6,57.4,15.4L57.4,15.4z M59.5,15.3c-3.3,1.8-7.8,4.3-10.7,5.9c-2.8,1.6-4,2.2-4.6,2.6
			c-0.6,0.3-0.6,0.4-0.7,0.4c0,0,0,0.1,0,0.2c0,0.1,0,0.1,0.5,1.1c0.5,1,1.5,2.8,4,7.1c2.4,4.3,6.3,11.1,8.3,14.6
			c2,3.5,2.1,3.7,2.2,3.9c0.1,0.2,0.2,0.2,0.3,0.3c0.1,0,0.2,0,0.9-0.4c0.7-0.4,1.9-1.1,6.1-3.5c4.2-2.4,11.3-6.6,15.1-8.7
			c3.7-2.1,4.1-2.3,4.2-2.4c0.2-0.1,0.2-0.2,0.2-0.4c0-0.1-0.1-0.2-0.8-1.6c-0.7-1.3-2.1-3.8-4.3-7.7c-2.2-3.9-5.2-9.1-6.9-12.1
			c-1.8-3.1-2.3-4-2.6-4.5c-0.3-0.5-0.4-0.6-0.4-0.6c-0.1,0-0.1,0-0.2,0c-0.1,0-0.2,0-0.7,0.3c-0.6,0.3-1.6,0.9-3.1,1.8
			C64.8,12.4,62.8,13.5,59.5,15.3L59.5,15.3z"/>
		<path class="st11" d="M59.5,23.1c-0.3,0.2-0.7,0.5-1.1,0.8c-0.4,0.3-1,0.6-1.6,1c-0.6,0.3-1.3,0.6-1.9,0.8
			c-0.6,0.2-1.1,0.4-1.6,0.5c-0.5,0.1-0.9,0.2-1.3,0.1c-0.4,0-0.8-0.1-1.2-0.3c-0.4-0.2-0.8-0.4-1.1-0.7c-0.3-0.3-0.6-0.7-0.8-1.1
			c-0.2-0.4-0.3-0.8-0.4-1.1c-0.1-0.3-0.1-0.5-0.1-0.5c0,0-0.1,0.1-0.1,0.3c0,0.3,0,0.7,0.1,1.1c0.1,0.4,0.2,0.8,0.4,1.3
			c0.2,0.4,0.5,0.9,1,1.3c0.4,0.4,1,0.7,1.6,0.9c0.5,0.2,1.1,0.3,1.7,0.3c0.6,0,1.4-0.2,2.3-0.3c0.8-0.2,1.8-0.4,2.5-0.6
			c0.8-0.2,1.3-0.3,1.7-0.4c0.3-0.1,0.4-0.1,0.4-0.1c0,0,0.1,0,0.1,0.2c0.1,0.2,0.2,0.5,0.5,0.9c0.2,0.4,0.6,0.9,0.9,1.3
			c0.3,0.5,0.6,0.9,0.8,1.2c0.3,0.3,0.6,0.6,0.8,0.7c0.2,0.2,0.4,0.3,0.4,0.3c0.1,0.1,0.1,0.1,0.1,0.2c0,0.2,0,0.5,0.1,0.9
			c0.1,0.4,0.2,0.9,0.3,1.4c0.1,0.5,0.2,1,0.2,1.6c0,0.5,0.1,1.1,0.1,1.6c0,0.5,0,0.9,0,1.1c0,0.3,0,0.5,0.1,0.6
			c0.1,0.1,0.2,0.2,0.5,0.4s0.8,0.4,1.3,0.6c0.6,0.3,1.2,0.6,1.9,0.9c0.6,0.3,1.2,0.6,1.6,0.7c0.4,0.2,0.6,0.3,0.8,0.4
			c0.2,0.1,0.2,0.2,0.4,0.3c0.1,0.1,0.3,0.2,0.4,0.3s0.3,0.1,0.4,0.1c0.1,0,0.2,0.1,0.3,0.1c0.1,0,0.1,0.1,0.2,0.1
			c0.1,0,0.2-0.1,0.3-0.1c0.1,0,0.2,0,0.3,0c0.1,0,0.2,0,0.2,0.1c0.1,0,0.1,0,0.1,0c0,0-0.1-0.1-0.1-0.2c-0.1-0.1-0.2-0.1-0.3-0.3
			c-0.1-0.1-0.3-0.3-0.4-0.4c-0.1-0.1-0.3-0.2-0.4-0.2c-0.1,0-0.2,0-0.3,0c-0.1,0-0.2,0-0.2-0.1c-0.1,0-0.2-0.1-0.3-0.2
			c-0.1-0.1-0.2-0.2-0.6-0.4c-0.4-0.2-0.9-0.6-1.6-1c-0.7-0.4-1.5-0.9-2-1.2c-0.5-0.3-0.8-0.5-1-0.6c-0.2-0.1-0.2-0.2-0.2-0.4
			c0-0.2,0-0.6,0-1.2c0-0.5,0.1-1.2,0.3-1.8c0.1-0.6,0.3-1.2,0.4-1.5c0.1-0.3,0.2-0.4,0.4-0.6c0.2-0.2,0.6-0.6,0.9-0.8
			c0.2-0.2,0.3-0.3,0.4-0.3c0,0,0.1,0,0.2,0.1c0.2,0.1,0.5,0.3,0.7,0.4c0.2,0.1,0.2,0.2,0.2,0.2c0,0,0,0.1-0.2,0.4
			c-0.2,0.4-0.5,1-0.7,1.5c-0.2,0.5-0.4,0.8-0.4,0.9c-0.1,0.2-0.1,0.2-0.2,0.2c-0.1,0-0.1,0-0.2-0.1c0-0.1-0.1-0.2-0.1-0.3
			c0-0.1,0-0.3,0-0.4c0-0.1,0-0.2,0-0.2c0,0-0.1,0-0.1,0.1c-0.1,0.1-0.1,0.2-0.2,0.3c-0.1,0.1-0.1,0.3-0.1,0.4c0,0.1,0,0.3,0,0.4
			c0,0.1,0.1,0.2,0.2,0.3c0.1,0.1,0.3,0.1,0.4,0.1c0.1,0,0.2,0,0.4-0.1c0.1-0.1,0.3-0.2,0.5-0.4c0.2-0.2,0.5-0.5,0.8-0.8
			c0.3-0.3,0.6-0.5,0.8-0.7c0.2-0.2,0.3-0.3,0.4-0.4c0.1-0.1,0.3-0.2,0.6-0.2c0.3,0,0.7-0.1,1-0.1c0.3,0,0.3-0.1,0.5-0.2
			c0.2-0.2,0.4-0.4,0.6-0.6c0.2-0.2,0.3-0.2,0.4-0.3s0.2-0.1,0.5-0.2c0.3-0.1,0.7-0.3,0.9-0.4c0.3-0.2,0.4-0.3,0.5-0.4
			c0.1-0.1,0.1-0.1,0.2-0.2c0,0,0.1,0,0.2,0c0.1,0,0.3,0.1,0.5,0.1c0.2,0,0.4,0.1,0.6,0.1c0.2,0,0.3,0,0.4,0c0.1,0,0.2,0,0.2,0
			c0.1,0,0.2,0.1,0.3,0.1c0.1,0,0.2,0,0.3,0c0.1,0,0.2,0,0.3,0c0.1,0,0.2,0.1,0.3,0.2c0.1,0.1,0.1,0.1,0.2,0c0.1,0,0.3-0.1,0.3-0.2
			c0.1-0.1,0.1-0.2,0.1-0.3c0-0.1-0.1-0.2-0.1-0.4c-0.1-0.1-0.2-0.3-0.5-0.6c-0.2-0.3-0.5-0.6-0.8-0.9c-0.2-0.2-0.3-0.3-0.4-0.4
			c-0.1-0.1-0.1-0.1-0.2-0.1c0,0-0.1-0.1-0.1-0.2c-0.1-0.1-0.2-0.2-0.3-0.3c-0.1-0.1-0.2-0.2-0.3-0.3c-0.1-0.1-0.2-0.1-0.2-0.1
			c-0.1,0-0.1,0-0.2-0.1c0,0-0.1-0.1-0.2-0.2c-0.1-0.1-0.2-0.3-0.3-0.5c-0.1-0.2-0.3-0.4-0.4-0.6c-0.2-0.2-0.3-0.3-0.5-0.4
			c-0.2-0.1-0.3-0.1-0.4-0.2c-0.1,0-0.2-0.1-0.3-0.2c-0.1,0-0.1-0.1-0.2-0.1c0,0-0.1,0.1-0.1,0.1c0,0.1,0,0.2,0,0.3
			c0,0.1,0.1,0.2,0.1,0.2c0,0.1,0.1,0.1,0.1,0.2c0,0.1,0,0.1,0,0.2c0,0.1,0.1,0.2,0.2,0.4c0.2,0.1,0.4,0.3,0.6,0.4
			c0.2,0.1,0.2,0.2,0.3,0.3c0.1,0.1,0.1,0.1,0.1,0.2c0,0,0,0.1-0.1,0.1c-0.1,0-0.3,0.1-0.5,0.1c-0.2,0.1-0.3,0.1-0.5,0.2
			c-0.1,0.1-0.2,0.1-0.4,0.1c-0.1,0-0.2,0-0.3,0c-0.1,0-0.2,0-0.3-0.1c-0.1-0.1-0.2-0.2-0.4-0.3c-0.1-0.1-0.3-0.2-0.5-0.3
			c-0.1-0.1-0.2-0.1-0.3-0.2c-0.1,0-0.2-0.1-0.3-0.2c-0.1-0.1-0.1-0.2-0.2-0.4c-0.1-0.2-0.2-0.5-0.3-0.8c-0.2-0.4-0.4-0.8-0.5-1.2
			c-0.2-0.4-0.4-0.7-0.6-1.1c-0.2-0.3-0.4-0.7-0.7-1c-0.2-0.3-0.5-0.6-0.7-0.9c-0.2-0.2-0.5-0.5-0.7-0.6c-0.2-0.2-0.5-0.3-0.7-0.4
			c-0.2-0.1-0.5-0.2-0.8-0.3c-0.3-0.1-0.6-0.1-0.9-0.2c-0.3,0-0.6,0-1,0c-0.3,0-0.6,0.1-0.9,0.2c-0.3,0.1-0.7,0.2-1.2,0.4
			c-0.5,0.2-1,0.5-1.4,0.8c-0.5,0.3-0.8,0.5-1.1,0.7C60.1,22.8,59.8,22.9,59.5,23.1L59.5,23.1z"/>
	</g>
</g>
</svg>
